<svg data-v-423bf9ae="" xmlns="http://www.w3.org/2000/svg" viewBox="0 0 510 90" class="iconLeftSlogan"><!----><!----><!----><g data-v-423bf9ae="" id="5ebd7f6d-2934-42c3-8530-fdbe59b98695" fill="white" transform="matrix(5.434782627474683,0,0,5.434782627474683,199.25573223412374,-11.84782720596143)"><path d="M0.22 3.35L7.69 3.35L7.69 4.52L4.63 4.52L4.63 13.05L3.28 13.05L3.28 4.52L0.22 4.52L0.22 3.35ZM11.16 5.61L11.16 5.61Q11.33 5.61 11.54 5.63Q11.76 5.66 11.97 5.69Q12.18 5.73 12.36 5.76Q12.53 5.80 12.61 5.82L12.61 5.82L12.39 6.96Q12.24 6.90 11.88 6.83Q11.52 6.75 10.96 6.75L10.96 6.75Q10.60 6.75 10.24 6.83Q9.88 6.90 9.77 6.93L9.77 6.93L9.77 13.05L8.47 13.05L8.47 6.08Q8.93 5.91 9.62 5.76Q10.30 5.61 11.16 5.61ZM16.34 12.11L16.34 12.11Q16.80 12.11 17.16 12.09Q17.51 12.07 17.75 12.01L17.75 12.01L17.75 9.84Q17.61 9.77 17.30 9.72Q16.98 9.67 16.53 9.67L16.53 9.67Q16.24 9.67 15.91 9.72Q15.58 9.76 15.31 9.89Q15.04 10.02 14.85 10.25Q14.67 10.49 14.67 10.86L14.67 10.86Q14.67 11.56 15.12 11.84Q15.57 12.11 16.34 12.11ZM16.23 5.59L16.23 5.59Q17.01 5.59 17.55 5.79Q18.09 5.99 18.42 6.36Q18.75 6.73 18.89 7.25Q19.03 7.76 19.03 8.37L19.03 8.37L19.03 12.92Q18.86 12.95 18.56 13.00Q18.26 13.05 17.88 13.09Q17.50 13.13 17.06 13.17Q16.62 13.20 16.18 13.20L16.18 13.20Q15.57 13.20 15.05 13.08Q14.53 12.95 14.15 12.68Q13.78 12.40 13.57 11.96Q13.36 11.51 13.36 10.88L13.36 10.88Q13.36 10.28 13.60 9.84Q13.85 9.41 14.27 9.14Q14.69 8.88 15.25 8.75Q15.81 8.62 16.42 8.62L16.42 8.62Q16.62 8.62 16.83 8.64Q17.04 8.67 17.23 8.70Q17.42 8.74 17.56 8.76Q17.70 8.79 17.75 8.81L17.75 8.81L17.75 8.44Q17.75 8.12 17.68 7.80Q17.61 7.49 17.43 7.25Q17.25 7 16.93 6.85Q16.62 6.71 16.11 6.71L16.11 6.71Q15.47 6.71 14.99 6.80Q14.50 6.89 14.27 6.99L14.27 6.99L14.11 5.91Q14.36 5.80 14.95 5.69Q15.54 5.59 16.23 5.59ZM22.48 5.77L22.48 13.05L21.18 13.05L21.18 5.77L22.48 5.77ZM21.83 4.45L21.83 4.45Q21.48 4.45 21.23 4.22Q20.99 3.99 20.99 3.60L20.99 3.60Q20.99 3.21 21.23 2.97Q21.48 2.74 21.83 2.74L21.83 2.74Q22.18 2.74 22.42 2.97Q22.67 3.21 22.67 3.60L22.67 3.60Q22.67 3.99 22.42 4.22Q22.18 4.45 21.83 4.45ZM24.72 13.05L24.72 5.98Q25.17 5.87 25.91 5.74Q26.66 5.61 27.62 5.61L27.62 5.61Q28.49 5.61 29.06 5.86Q29.64 6.10 29.98 6.54Q30.32 6.99 30.46 7.60Q30.60 8.22 30.60 8.96L30.60 8.96L30.60 13.05L29.30 13.05L29.30 9.24Q29.30 8.57 29.21 8.09Q29.12 7.62 28.91 7.32Q28.70 7.03 28.35 6.89Q28 6.76 27.48 6.76L27.48 6.76Q27.27 6.76 27.05 6.78Q26.82 6.79 26.62 6.81Q26.42 6.83 26.26 6.86Q26.10 6.89 26.03 6.90L26.03 6.90L26.03 13.05L24.72 13.05ZM38.95 7.39L38.95 3.35L40.31 3.35L40.31 13.05L38.95 13.05L38.95 8.57L34.20 8.57L34.20 13.05L32.84 13.05L32.84 3.35L34.20 3.35L34.20 7.39L38.95 7.39ZM48.43 5.77L48.43 12.84Q47.98 12.95 47.24 13.08Q46.51 13.20 45.54 13.20L45.54 13.20Q44.70 13.20 44.13 12.96Q43.55 12.71 43.20 12.26Q42.85 11.82 42.70 11.21Q42.55 10.60 42.55 9.86L42.55 9.86L42.55 5.77L43.85 5.77L43.85 9.58Q43.85 10.91 44.27 11.48Q44.69 12.05 45.68 12.05L45.68 12.05Q45.89 12.05 46.12 12.04Q46.34 12.03 46.54 12.01Q46.73 11.98 46.89 11.96Q47.05 11.94 47.12 11.91L47.12 11.91L47.12 5.77L48.43 5.77ZM51.97 2.18L51.97 6.09Q52.21 5.94 52.69 5.77Q53.17 5.60 53.80 5.60L53.80 5.60Q54.59 5.60 55.20 5.88Q55.80 6.16 56.22 6.66Q56.64 7.17 56.86 7.87Q57.08 8.57 57.08 9.41L57.08 9.41Q57.08 10.29 56.82 11.00Q56.56 11.70 56.08 12.19Q55.61 12.68 54.94 12.95Q54.26 13.22 53.42 13.22L53.42 13.22Q52.51 13.22 51.81 13.09Q51.11 12.96 50.67 12.84L50.67 12.84L50.67 2.41L51.97 2.18ZM51.97 7.31L51.97 11.91Q52.16 11.97 52.52 12.02Q52.88 12.07 53.41 12.07L53.41 12.07Q54.46 12.07 55.09 11.38Q55.72 10.68 55.72 9.41L55.72 9.41Q55.72 8.85 55.61 8.36Q55.50 7.87 55.24 7.51Q54.99 7.15 54.59 6.95Q54.19 6.75 53.63 6.75L53.63 6.75Q53.10 6.75 52.65 6.93Q52.21 7.11 51.97 7.31L51.97 7.31Z"></path></g><!----><g data-v-423bf9ae="" id="4e6defa7-7278-47a5-a4a1-0e2924098974" transform="matrix(2.3076923076923075,0,0,2.3076923076923075,-15.27588055684015,-13.846154469710122)" stroke="none" fill="white"><path d="M20.881 40.152s3.401-2.725 12.688-1.853c2.652.249 3.055.143 4.763-.585 2.95-1.259 10.729.58 10.729.58s1.495-3.307 4.646-4.646c2.395-1.018 8.671.774 8.671.774s3.101-15.375 7.122-18.116c.704-.48 3.407 0 3.407 0s5.109 5.11 3.715 9.445c-.474 1.474-2.013 4.955-2.013 4.955l6.039 12.387s5.374 1.184 4.335 1.649c-.117.055-2.321.258-2.321.258h-4.181l-6.503-10.63s-2.168 5.446-9.91 7.923c-7.742 2.478-41.109.237-41.109.237s-5.387 1.283-7.239 1.537c-1.112.152-4.452.422-4.452.422s-2.185.563-2.323 0c-.538-2.204 8.051-4.182 8.051-4.182s.396-1.427 1.549-1.858c1.092-.408 4.336 1.703 4.336 1.703z"></path><circle stroke-width=".33" stroke-miterlimit="10" cx="72.462" cy="10.537" r="4.537"></circle></g><!----><g data-v-423bf9ae="" id="64af4c3c-3f87-4202-97aa-99ef50a2ac8b" fill="white" transform="matrix(1.0284440876552592,0,0,1.0284440876552592,199.08354397754675,54.15843771798671)"><path d="M1.33 15.68L1.33 5.88L7.35 5.88L7.35 6.97L2.51 6.97L2.51 10.22L7.27 10.22L7.27 11.31L2.51 11.31L2.51 15.68L1.33 15.68ZM16.74 6.97L16.74 5.88L22.96 5.88L22.96 6.97L20.44 6.97L20.44 14.59L22.96 14.59L22.96 15.68L16.74 15.68L16.74 14.59L19.26 14.59L19.26 6.97L16.74 6.97ZM31.98 6.97L31.98 5.88L38.86 5.88L38.86 6.97L36.01 6.97L36.01 15.68L34.83 15.68L34.83 6.97L31.98 6.97ZM50.08 5.88L52.91 15.18L53.07 15.18L53.07 5.88L54.25 5.88L54.25 15.68L51.90 15.68L49.07 6.38L48.90 6.38L48.90 15.68L47.73 15.68L47.73 5.88L50.08 5.88ZM63.59 15.68L63.59 5.88L69.52 5.88L69.52 6.97L64.76 6.97L64.76 10.22L69.44 10.22L69.44 11.31L64.76 11.31L64.76 14.59L69.61 14.59L69.61 15.68L63.59 15.68ZM84.43 9.21L84.43 8.71Q84.43 8.23 84.25 7.87Q84.06 7.50 83.73 7.27Q83.41 7.03 82.99 6.90Q82.57 6.78 82.11 6.78L82.11 6.78Q81.70 6.78 81.34 6.88Q80.98 6.99 80.69 7.18Q80.40 7.38 80.23 7.66Q80.07 7.95 80.07 8.33L80.07 8.33L80.07 8.41Q80.07 8.82 80.23 9.11Q80.40 9.39 80.73 9.60Q81.06 9.80 81.55 9.93Q82.04 10.07 82.70 10.16L82.70 10.16Q84.24 10.40 84.97 11.07Q85.69 11.73 85.69 12.85L85.69 12.85L85.69 13.02Q85.69 13.65 85.48 14.17Q85.26 14.70 84.83 15.08Q84.41 15.46 83.78 15.67Q83.15 15.88 82.32 15.88L82.32 15.88Q81.38 15.88 80.66 15.60Q79.94 15.33 79.46 14.85Q78.97 14.36 78.72 13.71Q78.47 13.06 78.47 12.29L78.47 12.29L78.47 11.87L79.65 11.87L79.65 12.21Q79.65 13.50 80.35 14.14Q81.06 14.78 82.32 14.78L82.32 14.78Q83.41 14.78 83.97 14.30Q84.52 13.82 84.52 13.02L84.52 13.02L84.52 12.94Q84.52 12.17 83.95 11.76Q83.38 11.35 82.11 11.17L82.11 11.17Q81.37 11.07 80.77 10.87Q80.18 10.67 79.76 10.34Q79.34 10.01 79.11 9.55Q78.89 9.09 78.89 8.46L78.89 8.46L78.89 8.29Q78.89 7.71 79.13 7.24Q79.37 6.76 79.79 6.41Q80.22 6.06 80.81 5.87Q81.41 5.68 82.12 5.68L82.12 5.68Q82.95 5.68 83.60 5.92Q84.25 6.16 84.70 6.56Q85.15 6.96 85.38 7.50Q85.61 8.04 85.61 8.62L85.61 8.62L85.61 9.21L84.43 9.21ZM100.00 9.21L100.00 8.71Q100.00 8.23 99.81 7.87Q99.62 7.50 99.30 7.27Q98.98 7.03 98.56 6.90Q98.14 6.78 97.68 6.78L97.68 6.78Q97.27 6.78 96.91 6.88Q96.54 6.99 96.26 7.18Q95.97 7.38 95.80 7.66Q95.63 7.95 95.63 8.33L95.63 8.33L95.63 8.41Q95.63 8.82 95.80 9.11Q95.97 9.39 96.30 9.60Q96.63 9.80 97.12 9.93Q97.61 10.07 98.27 10.16L98.27 10.16Q99.81 10.40 100.53 11.07Q101.26 11.73 101.26 12.85L101.26 12.85L101.26 13.02Q101.26 13.65 101.05 14.17Q100.83 14.70 100.40 15.08Q99.97 15.46 99.34 15.67Q98.71 15.88 97.89 15.88L97.89 15.88Q96.95 15.88 96.23 15.60Q95.51 15.33 95.03 14.85Q94.54 14.36 94.29 13.71Q94.04 13.06 94.04 12.29L94.04 12.29L94.04 11.87L95.21 11.87L95.21 12.21Q95.21 13.50 95.92 14.14Q96.63 14.78 97.89 14.78L97.89 14.78Q98.98 14.78 99.53 14.30Q100.09 13.82 100.09 13.02L100.09 13.02L100.09 12.94Q100.09 12.17 99.52 11.76Q98.95 11.35 97.68 11.17L97.68 11.17Q96.94 11.07 96.34 10.87Q95.75 10.67 95.33 10.34Q94.91 10.01 94.68 9.55Q94.46 9.09 94.46 8.46L94.46 8.46L94.46 8.29Q94.46 7.71 94.70 7.24Q94.93 6.76 95.36 6.41Q95.79 6.06 96.38 5.87Q96.98 5.68 97.69 5.68L97.69 5.68Q98.52 5.68 99.17 5.92Q99.82 6.16 100.27 6.56Q100.72 6.96 100.95 7.50Q101.18 8.04 101.18 8.62L101.18 8.62L101.18 9.21L100.00 9.21ZM128.24 15.68L128.24 12.24L127.99 12.24L124.92 5.88L126.24 5.88L128.74 11.23L128.91 11.23L131.42 5.88L132.73 5.88L129.67 12.24L129.42 12.24L129.42 15.68L128.24 15.68ZM140.95 11.87L140.95 9.69Q140.95 7.78 141.86 6.73Q142.77 5.68 144.40 5.68L144.40 5.68Q146.02 5.68 146.93 6.73Q147.84 7.78 147.84 9.69L147.84 9.69L147.84 11.87Q147.84 13.83 146.93 14.85Q146.02 15.88 144.40 15.88L144.40 15.88Q142.77 15.88 141.86 14.85Q140.95 13.83 140.95 11.87L140.95 11.87ZM144.40 14.78L144.40 14.78Q145.53 14.78 146.10 14.01Q146.66 13.23 146.66 11.79L146.66 11.79L146.66 9.77Q146.66 8.43 146.10 7.60Q145.53 6.78 144.40 6.78L144.40 6.78Q143.26 6.78 142.69 7.60Q142.13 8.43 142.13 9.77L142.13 9.77L142.13 11.79Q142.13 13.23 142.69 14.01Q143.26 14.78 144.40 14.78ZM156.60 5.88L157.78 5.88L157.78 12.38Q157.78 13.57 158.33 14.17Q158.89 14.78 159.96 14.78L159.96 14.78Q161.04 14.78 161.59 14.17Q162.15 13.57 162.15 12.38L162.15 12.38L162.15 5.88L163.32 5.88L163.32 12.38Q163.32 14.08 162.43 14.98Q161.53 15.88 159.96 15.88L159.96 15.88Q158.40 15.88 157.50 14.98Q156.60 14.08 156.60 12.38L156.60 12.38L156.60 5.88ZM178.60 12.15L178.60 15.68L177.42 15.68L177.42 12.40Q177.42 12.04 177.25 11.84Q177.09 11.65 176.67 11.65L176.67 11.65L173.61 11.65L173.61 15.68L172.44 15.68L172.44 5.88L175.94 5.88Q176.69 5.88 177.25 6.10Q177.81 6.31 178.19 6.68Q178.56 7.04 178.75 7.53Q178.93 8.01 178.93 8.54L178.93 8.54L178.93 8.96Q178.93 9.51 178.63 10.05Q178.33 10.60 177.70 10.89L177.70 10.89L177.70 11.06Q178.12 11.13 178.36 11.40Q178.60 11.66 178.60 12.15L178.60 12.15ZM173.61 6.97L173.61 10.56L175.80 10.56Q176.79 10.56 177.28 10.13Q177.76 9.70 177.76 8.88L177.76 8.88L177.76 8.62Q177.76 7.88 177.28 7.43Q176.79 6.97 175.80 6.97L175.80 6.97L173.61 6.97ZM210.80 5.88L209.80 15.68L207.66 15.68L206.75 6.38L206.58 6.38L205.67 15.68L203.53 15.68L202.54 5.88L203.60 5.88L204.54 15.18L204.71 15.18L205.59 5.88L207.75 5.88L208.63 15.18L208.80 15.18L209.73 5.88L210.80 5.88ZM225.05 15.68L224.34 13.24L220.14 13.24L219.42 15.68L218.16 15.68L221.13 5.88L223.34 5.88L226.31 15.68L225.05 15.68ZM222.32 6.38L222.15 6.38L220.46 12.15L224.01 12.15L222.32 6.38ZM237.22 15.68L237.22 12.24L236.96 12.24L233.90 5.88L235.21 5.88L237.72 11.23L237.89 11.23L240.39 5.88L241.71 5.88L238.64 12.24L238.39 12.24L238.39 15.68L237.22 15.68Z"></path></g></svg>